<?xml version="1.0" encoding="iso-8859-1"?>
<svg xmlns="http://www.w3.org/2000/svg" xmlns:xlink="http://www.w3.org/1999/xlink" version="1.1" id="Capa_1" x="0px" y="0px" viewBox="0 0 486.569 486.569" style="enable-background:new 0 0 486.569 486.569;" xml:space="preserve" width="512px" height="512px"><path d="m512 256c0 141.386719-114.613281 256-256 256s-256-114.613281-256-256 114.613281-256 256-256 256 114.613281 256 256zm0 0" fill="#ff6126"/><path d="m512 256c0-10.101562-.605469-20.0625-1.742188-29.859375l-128.257812-128.257813-252 316.234376 96.140625 96.140624c9.796875 1.136719 19.757813 1.742188 29.859375 1.742188 141.386719 0 256-114.613281 256-256zm0 0" fill="#ed2400"/><path d="m130 97.882812h126v316.234376h-126zm0 0" fill="#dbfffa"/><path d="m256 97.882812h126v316.234376h-126zm0 0" fill="#a3fdf6"/><g fill="#093239"><path d="m307.882812 276.382812h18.527344v18.527344h-18.527344zm0 0"/><path d="m307.882812 313.441406h18.527344v18.527344h-18.527344zm0 0"/><path d="m307.882812 350.5h18.527344v18.527344h-18.527344zm0 0"/><path d="m270.824219 350.5h-14.824219l-12.351562 9.265625 12.351562 9.261719h14.824219zm0 0"/></g><path d="m185.589844 350.5h70.410156v18.527344h-70.410156zm0 0" fill="#116371"/><path d="m270.824219 313.441406h-14.824219l-12.351562 9.265625 12.351562 9.265625h14.824219zm0 0" fill="#093239"/><path d="m185.589844 313.441406h70.410156v18.527344h-70.410156zm0 0" fill="#116371"/><path d="m270.824219 276.382812h-14.824219l-12.351562 9.265626 12.351562 9.261718h14.824219zm0 0" fill="#093239"/><path d="m185.589844 276.382812h70.410156v18.527344h-70.410156zm0 0" fill="#116371"/><path d="m283.792969 145.441406c-11.976563 0-22.359375 6.824219-27.480469 16.792969h-.3125l-12.351562 43.175781 12.351562 43.179688s58.675781-29.59375 58.675781-72.265625c0-17.054688-13.824219-30.882813-30.882812-30.882813zm0 0" fill="#ed2400"/><path d="m255.6875 162.234375c-5.121094-9.96875-15.503906-16.792969-27.480469-16.792969-17.058593 0-30.882812 13.824219-30.882812 30.882813 0 42.667969 58.675781 72.265625 58.675781 72.265625v-86.355469zm0 0" fill="#f64213"/></svg>